<?xml version="1.0" encoding="UTF-8"?><svg id="Layer_1" xmlns="http://www.w3.org/2000/svg" viewBox="0 0 505.05 113.59"><defs><style>.cls-1{fill:#e12d2b;}.cls-2{fill:#3b414a;}</style></defs><g><path class="cls-2" d="M200.66,55.45c2.78-2.39,4.18-5.52,4.18-9.33s-1.44-7.21-4.27-9.75c-2.82-2.53-6.35-3.81-10.47-3.81h-18.99v47.62h20.41c4.21,0,7.82-1.32,10.71-3.91,2.9-2.61,4.37-5.99,4.37-10.05,0-4.72-2-8.34-5.94-10.76Zm-7.22-5.3c-.9,.92-2,1.36-3.35,1.36h-8.94v-9.57h8.94c1.39,0,2.49,.44,3.38,1.36,.88,.92,1.31,2.04,1.31,3.43s-.44,2.5-1.34,3.42Zm-12.28,10.34h10.36c1.48,0,2.68,.48,3.65,1.46,.97,.99,1.44,2.18,1.44,3.66s-.47,2.74-1.44,3.72c-.97,.98-2.17,1.46-3.65,1.46h-10.36v-10.31Z"/><rect class="cls-2" x="211.52" y="45.95" width="9.45" height="34.23"/><path class="cls-2" d="M216.21,31.28c-1.54,0-2.89,.58-4.01,1.72-1.12,1.14-1.69,2.49-1.69,4.01s.57,2.87,1.7,3.98c1.12,1.12,2.47,1.68,4.01,1.68s2.95-.57,4.07-1.68c1.13-1.12,1.7-2.46,1.7-3.98s-.57-2.87-1.69-4.01c-1.12-1.14-2.5-1.72-4.08-1.72Z"/><polygon class="cls-2" points="260.04 45.95 248.69 45.95 237.63 60.03 237.63 32.56 228.19 32.56 228.19 80.18 237.63 80.18 237.63 65.64 249.36 80.18 260.45 80.18 246.18 62.86 260.04 45.95"/><path class="cls-2" d="M277.61,45.01c-5.3,0-9.7,1.74-13.08,5.17-3.38,3.43-5.1,7.76-5.1,12.88s1.74,9.52,5.17,12.92c3.43,3.4,8.04,5.13,13.69,5.13,6.58,0,11.63-2.46,15.01-7.32l.23-.33-7.65-4.38-.2,.26c-1.63,2.12-4.07,3.2-7.26,3.2-4.83,0-7.79-1.82-9.01-5.55h25.25l.06-.31c.23-1.27,.34-2.49,.34-3.61,0-5.07-1.66-9.4-4.93-12.85-3.28-3.45-7.49-5.21-12.52-5.21Zm-5.58,10.21c1.46-1.13,3.33-1.7,5.58-1.7,1.89,0,3.6,.54,5.08,1.6,1.36,.98,2.31,2.47,2.82,4.42h-16.26c.51-1.83,1.44-3.28,2.79-4.32Z"/><path class="cls-2" d="M319.92,32.56h-19.13v47.62h19.13c6.55,0,12.1-2.31,16.5-6.88,4.39-4.56,6.62-10.26,6.62-16.93s-2.23-12.37-6.62-16.93c-4.39-4.56-9.94-6.88-16.5-6.88Zm9.72,34.1c-2.48,2.61-5.75,3.94-9.72,3.94h-9.07v-28.45h9.07c3.97,0,7.24,1.32,9.72,3.94,2.48,2.62,3.74,6.08,3.74,10.29s-1.26,7.67-3.74,10.29Z"/><path class="cls-2" d="M364.92,45.01c-5.3,0-9.7,1.74-13.08,5.17-3.38,3.43-5.1,7.76-5.1,12.88s1.74,9.52,5.17,12.92c3.43,3.4,8.04,5.13,13.69,5.13,6.58,0,11.63-2.46,15.01-7.32l.23-.33-7.65-4.38-.2,.26c-1.63,2.12-4.07,3.2-7.26,3.2-4.83,0-7.79-1.82-9.01-5.55h25.25l.06-.31c.23-1.27,.34-2.49,.34-3.61,0-5.07-1.66-9.4-4.93-12.85-3.28-3.45-7.49-5.21-12.52-5.21Zm-5.58,10.21c1.46-1.13,3.33-1.7,5.58-1.7,1.89,0,3.6,.54,5.08,1.6,1.36,.98,2.31,2.47,2.82,4.42h-16.26c.51-1.83,1.44-3.28,2.79-4.32Z"/><polygon class="cls-2" points="419.55 45.95 408.19 45.95 397.14 60.03 397.14 32.56 387.69 32.56 387.69 80.18 397.14 80.18 397.14 65.64 408.87 80.18 419.96 80.18 405.68 62.86 419.55 45.95"/><path class="cls-2" d="M442.24,45.01c-4.24,0-7.49,1.33-9.68,3.95v-16.4h-9.45v47.62h9.45v-18.45c0-2.65,.65-4.66,1.92-5.97,1.27-1.3,3-1.96,5.13-1.96,1.91,0,3.46,.56,4.6,1.67,1.13,1.11,1.71,2.74,1.71,4.86v19.86h9.45v-20.93c0-4.41-1.25-7.92-3.72-10.44-2.47-2.52-5.63-3.79-9.41-3.79Z"/><path class="cls-2" d="M491.42,50.24c-3.52-3.47-7.87-5.23-12.95-5.23s-9.42,1.76-12.91,5.23c-3.5,3.47-5.27,7.79-5.27,12.82s1.77,9.35,5.27,12.82c3.5,3.47,7.84,5.23,12.91,5.23s9.43-1.76,12.95-5.23h0c3.52-3.47,5.31-7.79,5.31-12.82s-1.79-9.35-5.31-12.82Zm-19.19,6.45c1.65-1.66,3.75-2.5,6.25-2.5s4.61,.84,6.28,2.5c1.67,1.66,2.52,3.8,2.52,6.37s-.85,4.7-2.52,6.37c-1.67,1.66-3.79,2.5-6.28,2.5s-4.6-.84-6.25-2.5c-1.65-1.66-2.49-3.8-2.49-6.37s.84-4.71,2.49-6.37Z"/></g><path class="cls-1" d="M86.64,103.83v-.02c-53.1,1.13-64.62-73.39-12.4-88.36,12.18-3.7,36.47-5.63,76.36-5.7,5.77-.01,10.46,4.69,10.47,10.5,.01,5.81-4.65,10.52-10.42,10.54-48.74,.09-64.56,3.04-70.38,4.8-26.65,7.1-24.82,42.99,1.47,47.05,0,0,0,0,0-.01,25,2.74,36.68-28.53,15.43-43.89,6.9-.73,17.67-1.33,26.04-1.58,3.13,5.4,5.17,11.44,5.84,17.66,2.96,25-17.5,48.36-42.43,49.02ZM67.76,11.28c-12.64-.97-28.81-1.48-48.97-1.52-5.77-.01-10.46,4.69-10.47,10.5-.01,5.81,4.65,10.52,10.42,10.54,9,.02,16.87,.13,23.77,.32,5.85-9,14.46-15.76,25.26-19.83Z"/></svg>