<?xml version="1.0" encoding="UTF-8"?>
<svg width="110px" height="25px" viewBox="0 0 110 25" version="1.1" xmlns="http://www.w3.org/2000/svg" xmlns:xlink="http://www.w3.org/1999/xlink">
    <!-- Generator: Sketch 54.1 (76490) - https://sketchapp.com -->
    <title>id-main-logo</title>
    <desc>Created with Sketch.</desc>
    <g id="Update-1-may-2019" stroke="none" stroke-width="1" fill="none" fill-rule="evenodd">
        <g id="id-main-logo" fill-rule="nonzero">
            <g id="Group-16" transform="translate(0.000000, 5.000000)">
                <g id="Group-13" transform="translate(0.000000, -0.000000)" fill="#FF2D3C">
                    <polygon id="Fill-128" points="0 2.11538462 2.11538462 2.11538462 2.11538462 0 0 0"></polygon>
                    <path d="M11.5673857,8.47749005 C11.5673857,9.8205263 10.8351715,11.0617305 9.64638571,11.733039 L8.1096,12.6011621 L8.1096,10.7712612 C8.1096,9.42829486 8.84181429,8.18709061 10.0306,7.51571226 L11.5673857,6.64758916 L11.5673857,8.47749005 Z M13.8701,0.0381538038 L13.8701,0.0381538038 L11.5673857,0.0381538038 L4.64931428,0.0381538038 L4.64931428,2.29131798 L11.5673857,2.29131798 L11.5673857,4.0455263 L8.6881,5.67204274 C6.9051,6.67925004 5.80695715,8.54074191 5.80695715,10.5554361 L5.80695715,12.5485338 L4.26502857,11.6772656 C3.07652857,11.0059571 2.34402857,9.76475284 2.34402857,8.42171658 L2.34402857,4.54930468 L0.0413857143,4.54930468 L0.0413857143,8.63754172 C0.0413857143,10.6522358 1.13988571,12.5137278 2.92288571,13.520935 L5.80695715,15.150317 L7.00502857,15.8272168 L8.1096,15.2031551 L10.9888143,13.5767085 C12.7718143,12.5695013 13.8700286,10.7080093 13.8700286,8.69331519 L13.8700286,6.70021751 L13.8700286,4.09850411 L13.8700286,2.29131798 L13.8701,2.29131798 L13.8701,0.0381538038 Z" id="Fill-129"></path>
                </g>
                <g id="Group-154" transform="translate(0.000000, -0.000000)" fill="#13122B">
                    <path d="M48.9909643,5.67678139 C48.9909643,4.71905732 48.3383928,4.11903825 47.4371786,4.11903825 C46.5370357,4.11903825 45.8844643,4.71905732 45.8844643,5.67678139 C45.8844643,6.63506459 46.5370357,7.23508366 47.4371786,7.23508366 C48.3383928,7.23508366 48.9909643,6.63506459 48.9909643,5.67678139 L48.9909643,5.67678139 Z M50.9485357,2.30542211 L50.9485357,9.06051148 L48.9909643,9.06051148 L48.9909643,8.26975835 C48.5594642,8.75487567 47.9196785,9.04862991 47.0461071,9.04862991 C45.3361072,9.04862991 43.9258214,7.57978884 43.9258214,5.67678139 C43.9258214,3.77426317 45.3361072,2.30542211 47.0461071,2.30542211 C47.9196785,2.30542211 48.5594642,2.59924623 48.9909643,3.08429367 L48.9909643,2.30542211 L50.9485357,2.30542211 Z" id="Fill-131"></path>
                    <path d="M43.3495428,2.30540113 L43.3495428,4.49566291 C42.5326143,4.36664309 41.3748285,4.68870341 41.3748285,5.96422441 L41.3748285,9.06049051 L39.3991143,9.06049051 L39.3991143,2.30540113 L41.3748285,2.30540113 L41.3748285,3.58099204 C41.6374714,2.71762157 42.5197572,2.30540113 43.3495428,2.30540113" id="Fill-133"></path>
                    <polygon id="Fill-135" points="93.3022786 9.06051148 91.2819214 6.33012771 91.2819214 9.06051148 89.3870642 9.06051148 89.3870642 0.0537955354 91.2819214 0.0537955354 91.2819214 5.01113415 93.1757786 2.305492 95.3852786 2.305492 93.0874214 5.5788633 95.4480643 9.06051148"></polygon>
                    <path d="M102.276021,4.86278931 L102.276021,9.06054642 L100.382164,9.06054642 L100.382164,5.13494705 C100.382164,4.36879575 99.8896642,4.01018214 99.2840929,4.01018214 C98.5890929,4.01018214 98.10995,4.40548882 98.10995,5.28276771 L98.10995,9.06054642 L96.2150929,9.06054642 L96.2150929,0.0537605896 L98.10995,0.0537605896 L98.10995,3.05888809 C98.4503072,2.60165749 99.0815928,2.30545705 99.9153785,2.30545705 C101.190307,2.30545705 102.276021,3.19475729 102.276021,4.86278931" id="Fill-137"></path>
                    <path d="M108.003036,5.67678139 C108.003036,4.76993837 107.350464,4.1699193 106.502392,4.1699193 C105.654321,4.1699193 105.00175,4.76993837 105.00175,5.67678139 C105.00175,6.58362441 105.654321,7.18406282 106.502392,7.18406282 C107.350464,7.18406282 108.003036,6.58362441 108.003036,5.67678139 M103.043107,5.67678139 C103.043107,3.77426317 104.584107,2.305492 106.502392,2.305492 C108.420678,2.305492 109.961679,3.77426317 109.961679,5.67678139 C109.961679,7.57978884 108.420678,9.04862991 106.502392,9.04862991 C104.584107,9.04862991 103.043107,7.57978884 103.043107,5.67678139" id="Fill-139"></path>
                    <path d="M79.2867571,4.54151877 C79.2867571,2.99621632 78.2876143,1.98076181 76.8373286,1.98076181 L75.2580429,1.98076181 L75.2580429,7.10227571 L76.8373286,7.10227571 C78.2811858,7.10227571 79.2867571,6.08675132 79.2867571,4.54151877 M81.2463285,4.54151877 C81.2463285,7.08962534 79.3125429,9.04491168 76.7728285,9.04491168 L73.2984714,9.04491168 L73.2984714,0.0381258472 L76.7728285,0.0381258472 C79.3125429,0.0381258472 81.2463285,1.9933423 81.2463285,4.54151877" id="Fill-141"></path>
                    <path d="M86.6650714,5.00782828 C86.4585715,4.26921425 85.865,3.99775543 85.2779286,3.99775543 C84.5359285,3.99775543 84.0326429,4.35755719 83.852,5.00782828 L86.6650714,5.00782828 Z M85.465,7.33738394 C85.8503572,7.33738394 86.1957143,7.23275627 86.4575714,7.06816164 L88.2909285,7.73506693 C87.6522143,8.60633514 86.6844286,9.05454973 85.4391429,9.05454973 C83.2067857,9.05454973 81.8196428,7.58361191 81.8196428,5.67703999 C81.8196428,3.77046806 83.2325714,2.29953024 85.2972857,2.29953024 C87.207,2.29953024 88.62,3.74523721 88.62,5.67703999 C88.62,5.94849881 88.5942143,6.20101703 88.5425714,6.447245 L83.9035714,6.447245 C84.1423571,7.11009658 84.7423572,7.33738394 85.465,7.33738394 L85.465,7.33738394 Z" id="Fill-143"></path>
                    <path d="M70.5784714,5.01376207 C70.3720429,4.27514804 69.7784,4.00368922 69.1913286,4.00368922 C68.4493285,4.00368922 67.9460429,4.36349098 67.7654,5.01376207 L70.5784714,5.01376207 Z M69.3784,7.34331773 C69.7638285,7.34331773 70.1091143,7.23869006 70.3710428,7.07409543 L72.2044,7.74100072 C71.5656143,8.61219904 70.5978285,9.06048352 69.3526143,9.06048352 C67.1201857,9.06048352 65.7330429,7.5895457 65.7330429,5.68297378 C65.7330429,3.77640186 67.1460428,2.30539414 69.2106857,2.30539414 C71.1204,2.30539414 72.5334715,3.751171 72.5334715,5.68297378 C72.5334715,5.9544326 72.5076143,6.20695082 72.4560429,6.45317879 L67.8170428,6.45317879 C68.0557571,7.11603037 68.6558286,7.34331773 69.3784,7.34331773 L69.3784,7.34331773 Z" id="Fill-145"></path>
                    <polygon id="Fill-147" points="16.1753571 9.06053245 18.2793571 9.06053245 18.2793571 0.0537466113 16.1753571 0.0537466113"></polygon>
                    <path d="M25.5037643,5.02591621 L25.5037643,9.06054642 L23.4891214,9.06054642 L23.4891214,5.3150576 C23.4891214,4.50019188 22.9652643,4.1190732 22.3206214,4.1190732 C21.5818357,4.1190732 21.07155,4.53968061 21.07155,5.47266309 L21.07155,9.06054642 L19.0568357,9.06054642 L19.0567643,2.30538716 L21.0714786,2.30538716 L21.07155,3.10711327 C21.4341214,2.62087766 22.1056929,2.30538716 22.9921928,2.30538716 C24.3486928,2.30538716 25.5037643,3.25171891 25.5037643,5.02591621" id="Fill-149"></path>
                    <path d="M58.1606072,5.02591621 L58.1606072,9.06054642 L56.1459642,9.06054642 L56.1459642,5.3150576 C56.1459642,4.50019188 55.6221071,4.1190732 54.9774643,4.1190732 C54.2386786,4.1190732 53.7283928,4.53968061 53.7283928,5.47266309 L53.7283928,9.06054642 L51.7136786,9.06054642 L51.7136071,2.30538716 L53.7283214,2.30538716 L53.7283928,3.10711327 C54.0909643,2.62087766 54.7625357,2.30538716 55.6490357,2.30538716 C57.0055358,2.30538716 58.1606072,3.25171891 58.1606072,5.02591621" id="Fill-150"></path>
                    <path d="M28.8911643,9.06054642 C27.5836643,9.06054642 26.58995,8.57431083 26.0800928,7.53802864 L27.7798071,6.59134742 C27.9498071,7.07751313 28.3158786,7.3461763 28.8911643,7.3461763 C29.3618786,7.3461763 29.5971643,7.20548458 29.5971643,6.94954168 C29.5971643,6.24587344 26.3808071,6.61692774 26.3808071,4.40367164 C26.3808071,3.0091253 27.5836643,2.30538716 28.9435214,2.30538716 C30.0025215,2.30538716 30.94395,2.76604244 31.4930929,3.67435318 L29.8195215,4.55715351 C29.6363785,4.22446967 29.37495,3.99424686 28.9435214,3.99424686 C28.60345,3.99424686 28.3943786,4.12214842 28.3943786,4.35244112 C28.3943786,5.08168968 31.6107357,4.59552397 31.6107357,6.96240173 C31.6107357,8.433689 30.3032357,9.06054642 28.8911643,9.06054642 Z" id="Fill-151"></path>
                    <path d="M38.6340714,2.30540113 L38.634,9.06049051 L36.6192857,9.06049051 L36.6193572,8.25883429 C36.2567143,8.74506989 35.5851429,9.06049051 34.6987142,9.06049051 C33.3420714,9.06049051 32.187,8.11429854 32.187,6.34017113 L32.187,2.30540113 L34.2017143,2.30540113 L34.2017143,6.05095985 C34.2017143,6.86568578 34.7255715,7.24687437 35.3702143,7.24687437 C36.109,7.24687437 36.6193572,6.82640673 36.6193572,5.89321459 L36.6193572,2.30540113 L38.6340714,2.30540113 Z" id="Fill-152"></path>
                    <path d="M58.7368857,5.68298776 C58.7368857,3.77676529 60.2143857,2.30540812 62.2018143,2.30540812 C63.4700286,2.30540812 64.5944571,2.95798564 65.1567429,3.94296743 L63.4438143,4.91536873 C63.2216,4.46764338 62.7508857,4.19891032 62.1756,4.19891032 C61.3257428,4.19891032 60.6981715,4.80018744 60.6981715,5.68298776 C60.6981715,6.56578809 61.3257428,7.16706519 62.1756,7.16706519 C62.7508857,7.16706519 63.2347429,6.89840202 63.4438143,6.4505369 L65.1567429,7.41007815 C64.5944571,8.40805977 63.4831714,9.0604975 62.2018143,9.0604975 C60.2143857,9.0604975 58.7368857,7.58921022 58.7368857,5.68298776" id="Fill-153"></path>
                </g>
            </g>
        </g>
    </g>
</svg>