<svg width="120" height="53" viewBox="0 0 120 53" fill="none" xmlns="http://www.w3.org/2000/svg">
<path d="M14.9846 7.96627C14.9846 7.79411 14.9162 7.629 14.7945 7.50726C14.6727 7.38553 14.5076 7.31714 14.3354 7.31714H2.11252C1.94035 7.31714 1.77524 7.38553 1.65351 7.50726C1.53177 7.629 1.46338 7.79411 1.46338 7.96627V20.1892C1.46338 20.2743 1.48019 20.3585 1.51286 20.4371C1.54553 20.5156 1.5934 20.5869 1.65373 20.6469C1.71405 20.7069 1.78565 20.7544 1.86438 20.7866C1.94312 20.8188 2.02744 20.8352 2.11252 20.8347H6.22494C6.31001 20.8352 6.39434 20.8188 6.47307 20.7866C6.55181 20.7544 6.6234 20.7069 6.68372 20.6469C6.74405 20.5869 6.79193 20.5156 6.82459 20.4371C6.85726 20.3585 6.87408 20.2743 6.87407 20.1892V13.1557C6.87407 13.0412 6.91954 12.9315 7.00046 12.8505C7.08139 12.7696 7.19115 12.7241 7.3056 12.7241H14.3354C14.5076 12.7241 14.6727 12.6558 14.7945 12.534C14.9162 12.4123 14.9846 12.2472 14.9846 12.075V7.96627Z" fill="#46BE88"/>
<path d="M26.5732 19.4517C26.5732 19.2228 26.4822 19.0033 26.3204 18.8414C26.1585 18.6796 25.939 18.5886 25.7101 18.5886H14.7117C14.4828 18.5886 14.2633 18.6796 14.1014 18.8414C13.9396 19.0033 13.8486 19.2228 13.8486 19.4517V37.2292C13.8486 37.4581 13.9396 37.6776 14.1014 37.8394C14.2633 38.0013 14.4828 38.0922 14.7117 38.0922H18.4221C18.6513 38.0922 18.8712 38.0014 19.0337 37.8397C19.1961 37.6779 19.2879 37.4584 19.2888 37.2292V24.5673C19.2888 24.4245 19.3456 24.2875 19.4466 24.1866C19.5475 24.0856 19.6845 24.0288 19.8273 24.0288H25.7286C25.9578 24.0279 26.1773 23.9361 26.3391 23.7737C26.5008 23.6112 26.5916 23.3913 26.5916 23.1621L26.5732 19.4517Z" fill="#3D4159"/>
<path d="M63.1498 17.9395C57.4883 17.9395 52.8485 22.1662 52.4538 27.529C52.4354 27.7835 52.4243 29.0448 52.4243 29.7972C52.4243 30.6308 52.4243 31.5086 52.4243 31.5455V43.8717C52.4243 44.0722 52.504 44.2645 52.6458 44.4063C52.7876 44.5481 52.9799 44.6278 53.1804 44.6278H57.101C57.3016 44.6278 57.4939 44.5481 57.6357 44.4063C57.7775 44.2645 57.8571 44.0722 57.8571 43.8717V36.7902C59.1227 37.7214 60.5896 38.3418 62.1392 38.6012C62.4749 38.6343 62.8142 38.6491 63.1572 38.6491C68.5642 38.6491 73.0381 34.7912 73.7831 29.7751C73.7831 29.8341 73.7831 29.8931 73.7831 29.9485C73.7831 29.8304 73.8089 29.7087 73.8163 29.5796C73.8725 29.1516 73.9008 28.7204 73.9011 28.2887C73.8974 22.5756 69.0916 17.9395 63.1498 17.9395ZM63.3121 33.7031C62.2149 33.7606 61.126 33.484 60.1893 32.9098C59.2525 32.3357 58.5118 31.491 58.0649 30.4873C57.6181 29.4835 57.4861 28.3679 57.6863 27.2876C57.8866 26.2073 58.4096 25.2131 59.1866 24.4361C59.9635 23.6592 60.9577 23.1361 62.038 22.9359C63.1183 22.7356 64.234 22.8677 65.2377 23.3145C66.2414 23.7614 67.0861 24.5021 67.6602 25.4388C68.2344 26.3756 68.511 27.4645 68.4535 28.5617C68.3852 29.9013 67.8231 31.1681 66.8756 32.1176C65.9282 33.0671 64.6626 33.6319 63.3232 33.7031H63.3121Z" fill="#3D4159"/>
<path d="M49.4515 28.5728V19.2783C49.4515 19.179 49.4319 19.0807 49.3939 18.989C49.3559 18.8972 49.3002 18.8139 49.23 18.7437C49.1598 18.6735 49.0765 18.6178 48.9847 18.5798C48.893 18.5418 48.7947 18.5222 48.6954 18.5222H44.7895C44.6902 18.5222 44.5919 18.5418 44.5002 18.5798C44.4084 18.6178 44.3251 18.6735 44.2549 18.7437C44.1847 18.8139 44.129 18.8972 44.091 18.989C44.053 19.0807 44.0334 19.179 44.0334 19.2783V29.174C43.9301 31.4828 41.9274 33.8212 39.6075 33.8212C37.2876 33.8212 35.2701 31.4828 35.1816 29.174V19.2783C35.1816 19.0778 35.1019 18.8855 34.9601 18.7437C34.8183 18.6019 34.626 18.5222 34.4255 18.5222H30.5159C30.4163 18.5217 30.3176 18.5409 30.2254 18.5787C30.1332 18.6165 30.0495 18.6721 29.9789 18.7424C29.9083 18.8126 29.8522 18.8961 29.814 18.9881C29.7758 19.0801 29.7561 19.1787 29.7561 19.2783V28.6539V28.7351C29.7561 34.5367 34.182 38.6934 39.6222 38.6934C45.0624 38.6934 49.4921 34.533 49.4921 28.7351C49.4552 28.6797 49.4515 28.6281 49.4515 28.5728Z" fill="#3D4159"/>
<path d="M95.1675 18.5259H91.269C91.0685 18.5259 90.8762 18.6056 90.7344 18.7474C90.5926 18.8892 90.5129 19.0815 90.5129 19.282V26.2602C90.5129 26.2602 90.4945 26.9352 90.4761 27.0716C90.1736 29.2403 88.2631 31.0476 86.0501 31.0476C83.8372 31.0476 81.9119 29.185 81.65 26.9905C81.65 26.8835 81.6205 26.1828 81.6205 26.1828V19.2783C81.6205 19.0778 81.5409 18.8855 81.3991 18.7437C81.2573 18.6019 81.0649 18.5222 80.8644 18.5222H76.9549C76.8552 18.5217 76.7565 18.5409 76.6644 18.5787C76.5722 18.6165 76.4884 18.6721 76.4178 18.7424C76.3472 18.8126 76.2912 18.8961 76.253 18.9881C76.2148 19.0801 76.1951 19.1787 76.1951 19.2783V26.1385V26.2233C76.1951 32.025 80.621 36.1817 86.0612 36.1817C87.5938 36.1861 89.1073 35.8418 90.4871 35.1748V35.2117C90.3838 37.5242 88.3811 39.8589 86.0612 39.8589H80.9419C80.8423 39.8589 80.7437 39.8786 80.6517 39.9168C80.5597 39.955 80.4762 40.0111 80.4059 40.0817C80.3357 40.1523 80.2801 40.236 80.2423 40.3282C80.2045 40.4204 80.1853 40.5191 80.1858 40.6187V43.9787C80.1858 44.1792 80.2654 44.3715 80.4072 44.5133C80.549 44.6551 80.7413 44.7348 80.9419 44.7348H86.0723C88.6024 44.7705 91.0464 43.8164 92.8832 42.076C94.7201 40.3356 95.8045 37.9466 95.9052 35.4182C95.9052 35.208 95.9236 34.3302 95.9273 33.6073C95.9273 30.4575 95.9273 21.8786 95.9273 19.282C95.9273 19.1824 95.9076 19.0838 95.8694 18.9918C95.8312 18.8998 95.7752 18.8163 95.7046 18.7461C95.634 18.6758 95.5502 18.6202 95.458 18.5824C95.3658 18.5446 95.2671 18.5254 95.1675 18.5259Z" fill="#3D4159"/>
<path d="M117.777 18.5259H113.878C113.677 18.5259 113.485 18.6055 113.342 18.7471C113.2 18.8888 113.119 19.0811 113.118 19.282V26.2602C113.118 26.2602 113.1 26.9352 113.082 27.0716C112.779 29.2403 110.869 31.0476 108.656 31.0476C106.443 31.0476 104.517 29.185 104.252 26.9905C104.252 26.8835 104.226 26.1828 104.226 26.1828V19.2783C104.226 19.0778 104.146 18.8855 104.005 18.7437C103.863 18.6019 103.67 18.5222 103.47 18.5222H99.5603C99.4607 18.5217 99.362 18.5409 99.2698 18.5787C99.1777 18.6165 99.0939 18.6721 99.0233 18.7424C98.9527 18.8126 98.8967 18.8961 98.8584 18.9881C98.8202 19.0801 98.8005 19.1787 98.8005 19.2783V26.1385V26.2233C98.8005 32.025 103.226 36.1817 108.667 36.1817C110.199 36.1861 111.713 35.8418 113.093 35.1748V35.2117C112.989 37.5242 110.987 39.8589 108.667 39.8589H103.551C103.451 39.8589 103.353 39.8786 103.261 39.9168C103.169 39.955 103.085 40.0111 103.015 40.0817C102.945 40.1523 102.889 40.236 102.851 40.3282C102.814 40.4204 102.794 40.5191 102.795 40.6187V43.9787C102.795 44.1792 102.875 44.3715 103.016 44.5133C103.158 44.6551 103.351 44.7348 103.551 44.7348H108.681C111.212 44.7705 113.656 43.8164 115.492 42.076C117.329 40.3356 118.414 37.9466 118.514 35.4182C118.514 35.208 118.533 34.3302 118.533 33.6073C118.533 30.4575 118.533 21.8786 118.533 19.282C118.535 19.182 118.518 19.0826 118.48 18.9897C118.443 18.8968 118.388 18.8125 118.317 18.7417C118.246 18.671 118.162 18.6154 118.069 18.5783C117.976 18.5412 117.877 18.5234 117.777 18.5259Z" fill="#3D4159"/>
</svg>
